<?xml version="1.0" encoding="UTF-8"?>
<svg version="1.1" xmlns="http://www.w3.org/2000/svg" width="200" height="200">
<path d="M0 0 C0.80566406 0.66386719 1.61132812 1.32773437 2.44140625 2.01171875 C21.39847137 18.06144055 32.7906779 40.86472903 35.72265625 65.4375 C37.95011087 94.0493115 30.29885994 120.69505775 11.84375 142.78125 C-5.36320832 162.61379324 -29.97202028 174.46514655 -56 177 C-81.86640005 178.42635504 -108.22084597 171.21518962 -128 154 C-128.81984375 153.31164062 -129.6396875 152.62328125 -130.484375 151.9140625 C-149.91208886 135.13558234 -161.75954888 110.53612215 -164 85 C-165.14292302 58.97856658 -158.54418709 32.86565219 -141 13 C-140.31292969 12.18273438 -139.62585938 11.36546875 -138.91796875 10.5234375 C-122.70057562 -8.27851391 -99.41088673 -20.68983963 -74.5546875 -22.875 C-47.43528662 -24.20194316 -20.68671463 -18.4942765 0 0 Z " fill="#9AD0EC" transform="translate(164,23)"/>
<path d="M0 0 C3.1294171 0.21021003 4.78656801 0.06765018 7.71875 -0.67578125 C24.84761163 -4.95119157 47.15310747 -3.41492211 62.87890625 4.9921875 C66.80284976 7.60065425 70.14941178 10.17792252 72.60546875 14.2421875 C73.0378418 17.57592773 73.0378418 17.57592773 73.1171875 21.55078125 C73.14418228 22.62383514 73.14418228 22.62383514 73.17172241 23.71856689 C73.22630226 26.0388846 73.26003871 28.35897036 73.29296875 30.6796875 C73.32570691 32.26735566 73.35948246 33.85500275 73.39428711 35.44262695 C73.63351413 47.04123573 73.72672945 58.64158052 73.60546875 70.2421875 C50.91373848 83.78906527 26.01584567 85.64903432 0.19140625 79.8984375 C-0.66195312 79.681875 -1.5153125 79.4653125 -2.39453125 79.2421875 C-2.39453125 78.5821875 -2.39453125 77.9221875 -2.39453125 77.2421875 C-3.49861328 77.06042969 -3.49861328 77.06042969 -4.625 76.875 C-5.60082031 76.70742187 -6.57664063 76.53984375 -7.58203125 76.3671875 C-8.54496094 76.20476562 -9.50789063 76.04234375 -10.5 75.875 C-15.15386452 74.85755593 -17.69280889 74.29477104 -20.39453125 70.2421875 C-20.58984375 67.32421875 -20.58984375 67.32421875 -20.51953125 64.0546875 C-20.50148437 62.96800781 -20.4834375 61.88132813 -20.46484375 60.76171875 C-20.44164062 59.93027344 -20.4184375 59.09882812 -20.39453125 58.2421875 C-21.21953125 58.28859375 -22.04453125 58.335 -22.89453125 58.3828125 C-36.43597239 58.80598254 -48.9241335 55.50030351 -61.39453125 50.2421875 C-62.20277344 49.97792969 -63.01101562 49.71367188 -63.84375 49.44140625 C-66.51253497 48.30961786 -67.7432293 47.65207073 -69.39453125 45.2421875 C-70.07628446 39.82634002 -69.85365383 34.66876137 -69.39453125 29.2421875 C-65.84043836 30.32733071 -62.9676227 31.35938088 -60.01953125 33.6171875 C-53.89221884 37.63860807 -46.45852901 38.72368851 -39.39453125 40.2421875 C-38.1415625 40.52642578 -38.1415625 40.52642578 -36.86328125 40.81640625 C-33.61021753 41.3774568 -30.37524577 41.58924356 -27.08203125 41.8046875 C-25.82777344 41.88847656 -24.57351562 41.97226563 -23.28125 42.05859375 C-21.85232422 42.14947266 -21.85232422 42.14947266 -20.39453125 42.2421875 C-20.39453125 40.9221875 -20.39453125 39.6021875 -20.39453125 38.2421875 C-22.24304688 38.29439453 -22.24304688 38.29439453 -24.12890625 38.34765625 C-33.66517789 38.53277041 -42.23874055 38.31239277 -51.39453125 35.2421875 C-51.39453125 34.5821875 -51.39453125 33.9221875 -51.39453125 33.2421875 C-52.38453125 33.2009375 -53.37453125 33.1596875 -54.39453125 33.1171875 C-60.09358205 32.31793038 -64.40810102 28.50980192 -68.10546875 24.2890625 C-70.08279372 21.14931012 -70.06999255 17.79829255 -69.39453125 14.2421875 C-65.97242262 6.9646513 -58.19911873 4.11363781 -50.95703125 1.4921875 C-34.53579433 -3.35954159 -16.7547965 -2.95995314 0 0 Z " fill="#9EB6C3" transform="translate(98.39453125,50.7578125)"/>
<path d="M0 0 C0.80566406 0.66386719 1.61132812 1.32773437 2.44140625 2.01171875 C21.39847137 18.06144055 32.7906779 40.86472903 35.72265625 65.4375 C37.95011087 94.0493115 30.29885994 120.69505775 11.84375 142.78125 C-5.36320832 162.61379324 -29.97202028 174.46514655 -56 177 C-81.86640005 178.42635504 -108.22084597 171.21518962 -128 154 C-128.81984375 153.31164062 -129.6396875 152.62328125 -130.484375 151.9140625 C-149.91208886 135.13558234 -161.75954888 110.53612215 -164 85 C-165.14292302 58.97856658 -158.54418709 32.86565219 -141 13 C-140.31292969 12.18273438 -139.62585938 11.36546875 -138.91796875 10.5234375 C-122.70057562 -8.27851391 -99.41088673 -20.68983963 -74.5546875 -22.875 C-47.43528662 -24.20194316 -20.68671463 -18.4942765 0 0 Z M-133.47265625 18.5859375 C-149.81150255 37.25089743 -155.24181231 61.09606802 -154.1953125 85.35742188 C-152.36584797 110.11007699 -139.45404846 131.35172351 -121.125 147.5390625 C-111.31607072 155.29557995 -99.21627636 161.95736937 -87 165 C-86.27039063 165.20238281 -85.54078125 165.40476563 -84.7890625 165.61328125 C-61.763654 170.95198007 -36.21481908 166.36923264 -16.22265625 154.10546875 C-11.52507201 151.03638038 -7.194827 147.72382888 -3 144 C-2.32710937 143.40960938 -1.65421875 142.81921875 -0.9609375 142.2109375 C15.96904965 126.36015271 25.19640648 105.00222336 26.2734375 82.05078125 C26.98994997 57.28364986 19.91485472 35.5937217 3.6875 16.75 C-12.23439849 -0.08409059 -33.62710829 -12.42210148 -57.2265625 -13.30078125 C-88.28131228 -13.63978824 -111.93711464 -3.9362245 -133.47265625 18.5859375 Z " fill="#090B0D" transform="translate(164,23)"/>
<path d="M0 0 C0.2475 0.556875 0.495 1.11375 0.75 1.6875 C1.95287108 4.13869737 1.95287108 4.13869737 4.12890625 6.31640625 C6.55928611 9.80214939 6.2601053 11.75271861 5.9375 15.9375 C5.61648614 21.67894798 5.61648614 21.67894798 8.0625 26.625 C12.65652363 30.33931698 16.97737147 33.26998442 23 34 C23 34.66 23 35.32 23 36 C33.28441121 38.11435999 43.54094451 38.58426348 54 39 C54 40.32 54 41.64 54 43 C39.35723224 43.84749138 24.71518203 41.6484112 12 34 C10.6251129 33.22896531 9.25012317 32.45811358 7.875 31.6875 C6.92625 31.130625 5.9775 30.57375 5 30 C4.54975379 35.35792987 4.09573826 40.87191482 6 46 C10.11827122 49.79550395 14.76650713 51.34891826 20 53 C21.10214844 53.40347656 22.20429687 53.80695313 23.33984375 54.22265625 C33.29943146 57.52672875 43.59485414 58.20443553 54 59 C54.06058594 59.83144531 54.12117188 60.66289063 54.18359375 61.51953125 C54.26738281 62.60621094 54.35117188 63.69289062 54.4375 64.8125 C54.51871094 65.89144531 54.59992188 66.97039062 54.68359375 68.08203125 C54.90212461 71.05989905 54.90212461 71.05989905 56 74 C56.99 74.185625 56.99 74.185625 58 74.375 C62.7331385 75.36107052 67.41184574 76.47061525 72 78 C72 78.66 72 79.32 72 80 C73.155 80.144375 74.31 80.28875 75.5 80.4375 C78.17402138 80.77175267 80.83762528 81.12419639 83.50390625 81.51953125 C104.59260636 84.13048982 125.28058462 82.92561134 144 72.64453125 C147 71 147 71 148 71 C148 76.61 148 82.22 148 88 C126.78565334 98.69783293 106.16363654 104.71476201 82.3359375 99.453125 C76.54368357 98.32954397 70.96886254 98.69389762 65.25 100 C45.80640674 104.18368338 22.71625275 99.49843163 6 89 C5.67 89.66 5.34 90.32 5 91 C3.35 91 1.7 91 0 91 C-0.495 91.99 -0.495 91.99 -1 93 C-0.38125 93.04125 0.2375 93.0825 0.875 93.125 C3 94 3 94 4.375 96.8125 C5.06626246 100.33793856 4.71350712 101.03035043 3 104 C-3.69494886 93.77904475 -8.58971758 83.74893308 -12 72 C-12.26683594 71.0821875 -12.53367187 70.164375 -12.80859375 69.21875 C-18.20429518 45.70093412 -12.40512661 20.25438814 0 0 Z " fill="#9BCFEC" transform="translate(24,50)"/>
<path d="M0 0 C4.37751125 4.2171283 5.339856 6.92416909 5.5625 13.12109375 C5.55208308 16.75572992 5.4624542 19.78863433 3.359375 22.88671875 C-13.13399298 34.84755812 -39.99706915 34.96526269 -59.1171875 32.14453125 C-62.52864183 31.46498602 -65.84419876 30.70132268 -69.1875 29.74609375 C-69.82606934 29.56530273 -70.46463867 29.38451172 -71.12255859 29.19824219 C-72.81220574 28.71886769 -74.50002756 28.23306823 -76.1875 27.74609375 C-76.1875 27.08609375 -76.1875 26.42609375 -76.1875 25.74609375 C-77.239375 25.49859375 -78.29125 25.25109375 -79.375 24.99609375 C-83.084862 24.12318504 -85.52415997 22.47273897 -88.1875 19.74609375 C-89.14241546 15.03330509 -88.89115916 10.49157113 -88.1875 5.74609375 C-86 2.62109375 -86 2.62109375 -83.1875 0.74609375 C-82.424375 0.06546875 -81.66125 -0.61515625 -80.875 -1.31640625 C-60.41576188 -16.06608955 -20.1120959 -15.55095987 0 0 Z " fill="#EB5327" transform="translate(166.1875,59.25390625)"/>
<path d="M0 0 C3.14210239 1.17290808 5.77561705 2.43078126 8.5 4.375 C20.4479289 11.8479666 34.33836108 12.06880309 48 13 C48.495 6.565 48.495 6.565 49 0 C49.66 0.33 50.32 0.66 51 1 C51 1.66 51 2.32 51 3 C51.66 3.12375 52.32 3.2475 53 3.375 C57.7331385 4.36107052 62.41184574 5.47061525 67 7 C67 7.66 67 8.32 67 9 C68.155 9.144375 69.31 9.28875 70.5 9.4375 C73.17402138 9.77175267 75.83762528 10.12419639 78.50390625 10.51953125 C99.59260636 13.13048982 120.28058462 11.92561134 139 1.64453125 C142 0 142 0 143 0 C143 5.61 143 11.22 143 17 C121.78565334 27.69783293 101.16363654 33.71476201 77.3359375 28.453125 C71.54368357 27.32954397 65.96886254 27.69389762 60.25 29 C42.60715889 32.79621504 21.96617445 29.06193253 6 21 C4.88109375 20.45730469 3.7621875 19.91460937 2.609375 19.35546875 C-0.2421913 16.78137522 -0.39521197 16.48209052 -0.5859375 12.890625 C-0.54624613 11.34266159 -0.47494113 9.79524363 -0.375 8.25 C-0.34792969 7.45722656 -0.32085938 6.66445312 -0.29296875 5.84765625 C-0.22247273 3.89726634 -0.11485499 1.94828099 0 0 Z " fill="#35A0D9" transform="translate(29,121)"/>
<path d="M0 0 C1.98 0.99 1.98 0.99 4 2 C4 2.66 4 3.32 4 4 C4.680625 3.9175 5.36125 3.835 6.0625 3.75 C9.39868622 4.03393074 11.28926671 5.30507382 14.12817383 6.97558594 C29.66347966 15.47775671 55.35652278 14.51779464 72 10 C82.26698868 6.78210353 82.26698868 6.78210353 91 1 C91.99 1 92.98 1 94 1 C94 7.93 94 14.86 94 22 C70.38072356 35.69521071 44.63228129 37.7586454 18 31 C18 30.34 18 29.68 18 29 C17.26394531 28.87882812 16.52789062 28.75765625 15.76953125 28.6328125 C14.79371094 28.46523437 13.81789063 28.29765625 12.8125 28.125 C11.84957031 27.96257812 10.88664062 27.80015625 9.89453125 27.6328125 C5.24066673 26.61536843 2.70172236 26.05258354 0 22 C-0.22705078 19.63989258 -0.22705078 19.63989258 -0.1953125 16.89453125 C-0.18886719 15.91162109 -0.18242188 14.92871094 -0.17578125 13.91601562 C-0.15902344 12.89185547 -0.14226562 11.86769531 -0.125 10.8125 C-0.11597656 9.77673828 -0.10695313 8.74097656 -0.09765625 7.67382812 C-0.0740786 5.11565315 -0.0411703 2.55794252 0 0 Z " fill="#F9B717" transform="translate(78,99)"/>
<path d="M0 0 C3.465 1.98 3.465 1.98 7 4 C8.32646156 4.6802367 9.65608877 5.35492261 11 6 C11 6.66 11 7.32 11 8 C11.66644531 8.12117188 12.33289063 8.24234375 13.01953125 8.3671875 C22 10 22 10 24.36230469 10.50341797 C45.38554579 14.77796443 69.14116084 13.9358949 88 3 C89.33084571 2.32838112 90.66386198 1.66102755 92 1 C92.17455021 4.24931927 92.28091753 7.49743448 92.375 10.75 C92.42527344 11.67039062 92.47554688 12.59078125 92.52734375 13.5390625 C92.58400205 16.14534433 92.54408439 18.44939143 92 21 C89.4140625 23.4453125 89.4140625 23.4453125 86 25 C84.88625 25.53882812 83.7725 26.07765625 82.625 26.6328125 C62.28494602 35.00555024 35.83400815 37.06477735 15 29 C12.62983529 27.72511292 10.32356644 26.35959283 8 25 C5.22861403 24.22514168 5.22861403 24.22514168 3 24 C3 23.34 3 22.68 3 22 C2.01 21.67 1.02 21.34 0 21 C0 14.07 0 7.14 0 0 Z " fill="#81B943" transform="translate(79,79)"/>
<path d="M0 0 C14.59189669 13.26536063 23.03987556 33.76294232 24.12451172 53.23535156 C24.86812996 75.21134888 21.51285113 95.06133701 8 113 C7.67 111.68 7.34 110.36 7 109 C5.68 108.67 4.36 108.34 3 108 C4.98 107.505 4.98 107.505 7 107 C6.195625 106.71125 5.39125 106.4225 4.5625 106.125 C2 105 2 105 1 103 C2.98 103 4.96 103 7 103 C7.495 101.515 7.495 101.515 8 100 C8.9590625 100.2784375 8.9590625 100.2784375 9.9375 100.5625 C10.618125 100.706875 11.29875 100.85125 12 101 C13.41577477 99.81575674 13.41577477 99.81575674 13.0625 96.4375 C13.041875 95.303125 13.02125 94.16875 13 93 C12.01 93.495 12.01 93.495 11 94 C10.34444881 96.52733235 10.34444881 96.52733235 10 99 C9.34 99 8.68 99 8 99 C7.67 97.02 7.34 95.04 7 93 C6.67 93 6.34 93 6 93 C5.97573944 91.75758293 5.97573944 91.75758293 5.95098877 90.49006653 C5.79497909 82.67682734 5.62036553 74.86427194 5.42494583 67.05191517 C5.32513612 63.03564532 5.23247811 59.01947766 5.15625 55.00268555 C5.08239285 51.12478026 4.98963783 47.24774232 4.88387299 43.37058067 C4.84686427 41.89280124 4.81661882 40.41483614 4.79331207 38.93677711 C4.75944481 36.86295767 4.70136043 34.79110711 4.63769531 32.71801758 C4.61104797 31.53887283 4.58440063 30.35972809 4.5569458 29.14485168 C3.7712109 24.70811884 1.60387385 22.28733093 -1.85058594 19.51464844 C-6.50635128 16.65940199 -10.96814264 14.6426647 -16.25 13.25 C-17.03415283 13.04028564 -17.81830566 12.83057129 -18.6262207 12.61450195 C-30.48690221 9.79128272 -42.87123397 10.06656269 -55 10 C-55 9.34 -55 8.68 -55 8 C-17.54998471 7.22500764 -17.54998471 7.22500764 -8 12 C-8 12.66 -8 13.32 -8 14 C-4.95613276 14.08226668 -2.92824652 13.97608217 0 13 C0 8.71 0 4.42 0 0 Z " fill="#9AD0EA" transform="translate(166,39)"/>
<path d="M0 0 C0.94319092 -0.00926514 1.88638184 -0.01853027 2.8581543 -0.02807617 C8.191678 -0.00397252 12.64333669 0.49671841 17.6875 2.25 C17.6875 2.58 17.6875 2.91 17.6875 3.25 C10.04406288 5.04704634 2.39914651 6.77033871 -5.3125 8.25 C-5.3125 8.91 -5.3125 9.57 -5.3125 10.25 C-7.29510426 11.93732277 -9.2957342 13.60366057 -11.3125 15.25 C-12.54310421 17.71120841 -12.5182723 19.50776866 -12.62890625 22.2578125 C-12.69174805 23.73701172 -12.69174805 23.73701172 -12.75585938 25.24609375 C-12.79517578 26.27863281 -12.83449219 27.31117187 -12.875 28.375 C-12.93977539 29.93541016 -12.93977539 29.93541016 -13.00585938 31.52734375 C-13.1121288 34.10142528 -13.21416583 36.67560508 -13.3125 39.25 C-15.25034265 39.10879286 -17.18776955 38.96187127 -19.125 38.8125 C-20.20394531 38.73128906 -21.28289063 38.65007812 -22.39453125 38.56640625 C-25.3125 38.25 -25.3125 38.25 -28.3125 37.25 C-28.3125 36.59 -28.3125 35.93 -28.3125 35.25 C-29.3025 35.20875 -30.2925 35.1675 -31.3125 35.125 C-37.0115508 34.32574288 -41.32606977 30.51761442 -45.0234375 26.296875 C-47.00076247 23.15712262 -46.9879613 19.80610505 -46.3125 16.25 C-42.89039137 8.9724638 -35.11708748 6.12145031 -27.875 3.5 C-18.61745834 0.76481724 -9.61399815 0.05943862 0 0 Z " fill="#84A3B2" transform="translate(75.3125,48.75)"/>
<path d="M0 0 C3.14210239 1.17290808 5.77561705 2.43078126 8.5 4.375 C18.42753723 10.58428989 29.04369694 11.59945226 40.48486328 12.0534668 C47.45169039 12.45948626 47.45169039 12.45948626 50.47265625 15.4375 C50.97667969 16.283125 51.48070312 17.12875 52 18 C58.28674062 22.51005305 65.60522355 24.07181973 73 26 C73 26.33 73 26.66 73 27 C50.15967473 31.35053815 27.23966384 31.72471915 6 21 C4.88109375 20.45730469 3.7621875 19.91460937 2.609375 19.35546875 C-0.2421913 16.78137522 -0.39521197 16.48209052 -0.5859375 12.890625 C-0.54624613 11.34266159 -0.47494113 9.79524363 -0.375 8.25 C-0.34792969 7.45722656 -0.32085938 6.66445312 -0.29296875 5.84765625 C-0.22247273 3.89726634 -0.11485499 1.94828099 0 0 Z " fill="#82A3B2" transform="translate(29,121)"/>
<path d="M0 0 C3.68254015 1.01269854 6.61370867 2.32449293 9.75 4.44921875 C14.25564034 7.37037557 18.81140884 8.59704662 24 9.8125 C24.87011719 10.02841797 25.74023438 10.24433594 26.63671875 10.46679688 C28.75473272 10.99048165 30.87696367 11.49706297 33 12 C33 17.28 33 22.56 33 28 C22.65796554 27.36681422 7.54464463 23.54464463 0 16 C-0.07319621 13.30345146 -0.09242537 10.63308542 -0.0625 7.9375 C-0.05798828 7.17888672 -0.05347656 6.42027344 -0.04882812 5.63867188 C-0.0370068 3.75908129 -0.01907078 1.87953101 0 0 Z " fill="#83A2B3" transform="translate(29,80)"/>
<path d="M0 0 C0 0.33 0 0.66 0 1 C-5.61 1.66 -11.22 2.32 -17 3 C-17 3.66 -17 4.32 -17 5 C-20.37097383 6.49821059 -22.20442119 7 -26 7 C-26 7.66 -26 8.32 -26 9 C-27.79036458 9.9765625 -29.58072917 10.953125 -31.37109375 11.9296875 C-33.16618315 12.91410024 -33.16618315 12.91410024 -34 15 C-34.99 15 -35.98 15 -37 15 C-37 21.6 -37 28.2 -37 35 C-41.46088846 34.10782231 -42.79020577 33.77033082 -46.125 31.1875 C-46.78757812 30.68605469 -47.45015625 30.18460938 -48.1328125 29.66796875 C-51.63194661 26.54217322 -52.92092033 24.83033656 -53.375 20.0625 C-53.41988485 16.29965353 -52.22082472 14.01742489 -50 11 C-35.02796981 0.34776869 -17.6671868 -0.35334374 0 0 Z " fill="#668DA1" transform="translate(82,49)"/>
<path d="M0 0 C2.24014831 1.12007415 4.47670817 2.24766749 6.69921875 3.40234375 C15.30837624 7.8250874 23.60956428 10.78044247 33 13 C33 17.95 33 22.9 33 28 C20.55283414 27.26781377 10.72682452 23.21026683 0 17 C0 11.39 0 5.78 0 0 Z " fill="#82A3B2" transform="translate(29,100)"/>
<path d="M0 0 C0.73605469 0.49371094 1.47210938 0.98742187 2.23046875 1.49609375 C3.69419922 2.45708984 3.69419922 2.45708984 5.1875 3.4375 C6.15042969 4.07558594 7.11335938 4.71367188 8.10546875 5.37109375 C10.84977757 6.91546187 12.90418343 7.59816641 16 8 C16 8.66 16 9.32 16 10 C26.28441121 12.11435999 36.54094451 12.58426348 47 13 C47 14.32 47 15.64 47 17 C32.35723224 17.84749138 17.71518203 15.6484112 5 8 C3.6251129 7.22896531 2.25012317 6.45811358 0.875 5.6875 C-0.07375 5.130625 -1.0225 4.57375 -2 4 C-2.45024621 9.35792987 -2.90426174 14.87191482 -1 20 C3.11827122 23.79550395 7.76650713 25.34891826 13 27 C14.10214844 27.40347656 15.20429687 27.80695313 16.33984375 28.22265625 C26.29943146 31.52672875 36.59485414 32.20443553 47 33 C46.67 34.65 46.34 36.3 46 38 C28.70322554 38.28969967 11.77013889 35.01611111 -2 24 C-2 29.61 -2 35.22 -2 41 C-2.33 41 -2.66 41 -3 41 C-2.99476318 40.43490723 -2.98952637 39.86981445 -2.98413086 39.28759766 C-2.96337578 36.7334097 -2.9503446 34.17923947 -2.9375 31.625 C-2.92912109 30.73554687 -2.92074219 29.84609375 -2.91210938 28.9296875 C-2.90888672 28.07890625 -2.90566406 27.228125 -2.90234375 26.3515625 C-2.89710693 25.56604004 -2.89187012 24.78051758 -2.88647461 23.97119141 C-2.87426047 21.92227332 -2.87426047 21.92227332 -4 20 C-4.1127088 16.99654861 -3.903266 14.00029808 -3.75 11 C-3.72292969 10.16726562 -3.69585938 9.33453125 -3.66796875 8.4765625 C-3.60802734 7.28160156 -3.60802734 7.28160156 -3.546875 6.0625 C-3.51432617 5.33160156 -3.48177734 4.60070312 -3.44824219 3.84765625 C-3 2 -3 2 0 0 Z " fill="#91C0D5" transform="translate(31,76)"/>
<path d="M0 0 C3.30049883 1.23624956 6.18120939 2.62883362 9.125 4.5625 C11.49764724 6.11810724 13.27432974 7.09144325 16 8 C16.33 11.63 16.66 15.26 17 19 C18.65 19 20.3 19 22 19 C22 19.66 22 20.32 22 21 C22.70125 21.18175781 23.4025 21.36351562 24.125 21.55078125 C28.53422429 22.71898606 32.84787263 23.86818407 37.0625 25.625 C41.57968955 27.41872807 46.1833391 27.713764 51 28 C51 28.66 51 29.32 51 30 C35.31018656 30.33598807 20.11007157 28.12471515 6 21 C4.88109375 20.45730469 3.7621875 19.91460937 2.609375 19.35546875 C-0.2421913 16.78137522 -0.39521197 16.48209052 -0.5859375 12.890625 C-0.54624613 11.34266159 -0.47494113 9.79524363 -0.375 8.25 C-0.34792969 7.45722656 -0.32085938 6.66445312 -0.29296875 5.84765625 C-0.22247273 3.89726634 -0.11485499 1.94828099 0 0 Z " fill="#668FA3" transform="translate(29,121)"/>
<path d="M0 0 C3.76091166 1.08868496 7.06617958 2.53342965 10.5 4.375 C20.44525057 9.42228933 30.91302991 11.65126175 42 12 C43.01449219 12.0515625 44.02898437 12.103125 45.07421875 12.15625 C55.62931219 12.46783947 66.18274409 10.930219 76 7 C78.28125 6.69140625 78.28125 6.69140625 80.5 6.5625 C84.39056715 6.21351225 86.73313433 5.20993854 90 3 C90.99 3 91.98 3 93 3 C93.33 2.01 93.66 1.02 94 0 C94.04296875 2.20703125 94.04296875 2.20703125 93 5 C90.3183491 7.00384465 87.3575666 8.3208669 84.3125 9.6875 C83.44181885 10.08251709 82.5711377 10.47753418 81.67407227 10.88452148 C74.47125084 14.02186537 67.87599596 15.77226036 60 16 C58.5776001 16.05124023 58.5776001 16.05124023 57.12646484 16.10351562 C43.75031176 16.51878503 31.01887444 16.30388354 18 13 C18 12.34 18 11.68 18 11 C17.26394531 10.87882812 16.52789062 10.75765625 15.76953125 10.6328125 C14.30580078 10.38144531 14.30580078 10.38144531 12.8125 10.125 C11.84957031 9.96257812 10.88664062 9.80015625 9.89453125 9.6328125 C5.24066673 8.61536843 2.70172236 8.05258354 0 4 C0 2.68 0 1.36 0 0 Z " fill="#999138" transform="translate(78,117)"/>
<path d="M0 0 C0.65355469 0.58007812 0.65355469 0.58007812 1.3203125 1.171875 C16.02228322 14.02814377 31.84398862 14.18085834 50.625 14.0625 C52.02473797 14.05747197 53.4244777 14.05291138 54.82421875 14.04882812 C58.21619169 14.03713167 61.60807233 14.02074086 65 14 C65 13.34 65 12.68 65 12 C65.59167969 11.96261719 66.18335938 11.92523438 66.79296875 11.88671875 C71.78098031 11.47172921 74.7086842 10.64080972 79 8 C81.67614511 7.46175277 84.27218183 7.23117103 87 7 C87 5.68 87 4.36 87 3 C88.375 1.25 88.375 1.25 90 0 C90.66 0 91.32 0 92 0 C92.5625 2.625 92.5625 2.625 92 6 C84.45368082 14.15984107 68.60975435 17.59309423 57.98657227 18.16113281 C30.34544049 18.52726871 30.34544049 18.52726871 18 15 C17.36143066 14.81920898 16.72286133 14.63841797 16.06494141 14.45214844 C14.37529426 13.97277394 12.68747244 13.48697448 11 13 C11 12.34 11 11.68 11 11 C9.39125 10.62875 9.39125 10.62875 7.75 10.25 C3.95569076 8.98523025 2.30011175 8.22015645 0 5 C-0.25 2.25 -0.25 2.25 0 0 Z " fill="#A0440F" transform="translate(79,74)"/>
<path d="M0 0 C4.84601214 4.40546558 8.40475034 9.54748867 12 15 C12.5775 15.87269531 13.155 16.74539062 13.75 17.64453125 C15 20 15 20 14.375 22.6875 C13 25 13 25 10 27 C10.99 24.525 10.99 24.525 12 22 C11.34 21.67 10.68 21.34 10 21 C10.33 20.34 10.66 19.68 11 19 C10.34 19 9.68 19 9 19 C9 17.02 9 15.04 9 13 C7.68 13.33 6.36 13.66 5 14 C4.67 17.3 4.34 20.6 4 24 C2.700625 23.0925 1.40125 22.185 0.0625 21.25 C-12.88027174 12.69529084 -26.47320914 10.59462043 -41.8125 10.3125 C-43.08931641 10.27833984 -44.36613281 10.24417969 -45.68164062 10.20898438 C-48.78767235 10.12755283 -51.89345892 10.05806919 -55 10 C-55 9.34 -55 8.68 -55 8 C-17.54998471 7.22500764 -17.54998471 7.22500764 -8 12 C-8 12.66 -8 13.32 -8 14 C-4.95613276 14.08226668 -2.92824652 13.97608217 0 13 C0 8.71 0 4.42 0 0 Z " fill="#A2CCE2" transform="translate(166,39)"/>
<path d="M0 0 C0 0.66 0 1.32 0 2 C-17.57371039 15.23386118 -42.55563892 16.36510112 -63.62744141 13.66308594 C-71.16074609 12.32002314 -77.4253564 9.84703366 -84 6 C-86.77138597 5.22514168 -86.77138597 5.22514168 -89 5 C-89 4.34 -89 3.68 -89 3 C-89.66 2.67 -90.32 2.34 -91 2 C-89.02 2 -87.04 2 -85 2 C-85 2.66 -85 3.32 -85 4 C-84.15695313 4.13277344 -83.31390625 4.26554687 -82.4453125 4.40234375 C-81.34960938 4.57894531 -80.25390625 4.75554687 -79.125 4.9375 C-77.48917969 5.19853516 -77.48917969 5.19853516 -75.8203125 5.46484375 C-73 6 -73 6 -71 7 C-71 7.66 -71 8.32 -71 9 C-62.7733557 9.88424584 -54.58078294 10.13429783 -46.3125 10.1875 C-45.35142334 10.20039062 -44.39034668 10.21328125 -43.40014648 10.2265625 C-34.21819373 10.23915022 -26.00500929 8.48431715 -17.32421875 5.5859375 C-14.80221126 4.95013729 -12.59053821 4.89912949 -10 5 C-10 4.34 -10 3.68 -10 3 C-6.27034861 0.96564469 -4.33094958 0 0 0 Z " fill="#7F9B25" transform="translate(171,98)"/>
<path d="M0 0 C5.28 0 10.56 0 16 0 C16 5.61 16 11.22 16 17 C1.66964286 17.13392857 1.66964286 17.13392857 -3 16 C-2.01 15.67 -1.02 15.34 0 15 C0 10.05 0 5.1 0 0 Z " fill="#9BB7C8" transform="translate(62,113)"/>
<path d="M0 0 C12.47232252 4.04161771 12.47232252 4.04161771 16 8 C16.88123838 13.13160152 16.58984214 17.84871198 16 23 C11.85794102 22.4725019 8.78847782 21.61028343 5.1875 19.5 C4.41792969 19.0565625 3.64835937 18.613125 2.85546875 18.15625 C1 17 1 17 0 16 C-0.07319621 13.30345146 -0.09242537 10.63308542 -0.0625 7.9375 C-0.05798828 7.17888672 -0.05347656 6.42027344 -0.04882812 5.63867188 C-0.0370068 3.75908129 -0.01907078 1.87953101 0 0 Z " fill="#668DA1" transform="translate(29,80)"/>
<path d="M0 0 C5.33333333 2.66666667 10.66666667 5.33333333 16 8 C16 13.28 16 18.56 16 24 C9.73517173 22.74703435 5.55223665 20.14403762 0 17 C0 11.39 0 5.78 0 0 Z " fill="#668CA0" transform="translate(29,100)"/>
<path d="M0 0 C2.75322741 0.03306277 5.49840371 0.10025426 8.25 0.1875 C9.02730469 0.19330078 9.80460937 0.19910156 10.60546875 0.20507812 C16.44245822 0.42957772 16.44245822 0.42957772 19.3671875 3.421875 C19.90601562 4.27265625 20.44484375 5.1234375 21 6 C27.28674062 10.51005305 34.60522355 12.07181973 42 14 C42 14.33 42 14.66 42 15 C27.21867882 17.84965831 27.21867882 17.84965831 21 14 C21 13.34 21 12.68 21 12 C20.443125 11.97421875 19.88625 11.9484375 19.3125 11.921875 C13.31706452 11.47626831 9.23258464 9.94927498 4 7 C4 6.34 4 5.68 4 5 C3.34 5 2.68 5 2 5 C1.34 3.35 0.68 1.7 0 0 Z " fill="#9AB7C5" transform="translate(60,133)"/>
<path d="M0 0 C1.60875 0.928125 1.60875 0.928125 3.25 1.875 C5.79780984 3.3323679 8.35259355 4.72924491 11 6 C11 6.66 11 7.32 11 8 C11.66644531 8.12117188 12.33289063 8.24234375 13.01953125 8.3671875 C22 10 22 10 24.36230469 10.50341797 C45.01660594 14.70294981 69.55847557 14.2485647 88 3 C88.99 2.34 89.98 1.68 91 1 C91 2.32 91 3.64 91 5 C89.35 5.33 87.7 5.66 86 6 C85.67 6.99 85.34 7.98 85 9 C84.0925 9.103125 83.185 9.20625 82.25 9.3125 C79.0495462 9.73201784 79.0495462 9.73201784 77.18603516 11.46948242 C69.59135501 16.78677635 55.77270116 15.28795302 46.71142578 15.20581055 C44.60567273 15.18733038 42.50035782 15.18530343 40.39453125 15.18554688 C22.13298251 15.13950202 22.13298251 15.13950202 17 11 C14.66989091 10.32215008 12.33640176 9.65583207 10 9 C8.31243867 8.03567924 6.64333504 7.03789581 5 6 C3.34630643 5.30177383 1.68272986 4.62501395 0 4 C0 2.68 0 1.36 0 0 Z " fill="#999C43" transform="translate(79,79)"/>
<path d="M0 0 C0.99 0.495 0.99 0.495 2 1 C2 1.66 2 2.32 2 3 C2.66 3.12375 3.32 3.2475 4 3.375 C8.7331385 4.36107052 13.41184574 5.47061525 18 7 C18 7.66 18 8.32 18 9 C19.155 9.144375 20.31 9.28875 21.5 9.4375 C24.16617298 9.77077162 26.81927306 10.12427176 29.4765625 10.52734375 C35.25966424 11.2472012 41.05629267 11.14494985 46.875 11.125 C47.99519531 11.12886719 49.11539063 11.13273438 50.26953125 11.13671875 C56.90833434 11.12897219 63.4106542 10.81830914 70 10 C62.99467245 17.00532755 47.5972058 15.26318371 38.3605957 15.33032227 C29.8971263 15.21535 20.6523014 13.8261507 13 10 C13 9.34 13 8.68 13 8 C12.36191406 7.86722656 11.72382812 7.73445312 11.06640625 7.59765625 C10.24011719 7.42105469 9.41382812 7.24445313 8.5625 7.0625 C7.73878906 6.88847656 6.91507812 6.71445313 6.06640625 6.53515625 C4 6 4 6 3 5 C2.67 6.32 2.34 7.64 2 9 C1.34 9 0.68 9 0 9 C0 6.03 0 3.06 0 0 Z " fill="#3B9FCE" transform="translate(78,121)"/>
<path d="M0 0 C0.495 1.98 0.495 1.98 1 4 C-1.76883196 5.48293582 -4.5403973 6.96068862 -7.3125 8.4375 C-8.09818359 8.85837891 -8.88386719 9.27925781 -9.69335938 9.71289062 C-10.45068359 10.11572266 -11.20800781 10.51855469 -11.98828125 10.93359375 C-12.68477783 11.30540771 -13.38127441 11.67722168 -14.09887695 12.06030273 C-18.25083859 14.11255653 -21.97078341 14.14571557 -26.4921875 14.1328125 C-27.23397247 14.13376923 -27.97575745 14.13472595 -28.74002075 14.13571167 C-30.31528813 14.13639245 -31.89055832 14.13454525 -33.46582031 14.13037109 C-35.8314479 14.1250971 -38.19687893 14.13027966 -40.5625 14.13671875 C-65.79597156 14.15083635 -65.79597156 14.15083635 -75 10 C-75 9.34 -75 8.68 -75 8 C-74.27296875 8.20496094 -73.5459375 8.40992187 -72.796875 8.62109375 C-65.49940509 10.57644146 -58.54310318 11.68127733 -51 12 C-49.47439453 12.07927734 -49.47439453 12.07927734 -47.91796875 12.16015625 C-37.36250648 12.45950968 -26.81828669 10.93063167 -17 7 C-14.71875 6.69140625 -14.71875 6.69140625 -12.5 6.5625 C-8.60943285 6.21351225 -6.26686567 5.20993854 -3 3 C-2.01 3 -1.02 3 0 3 C0 2.01 0 1.02 0 0 Z " fill="#C18E0C" transform="translate(171,117)"/>
<path d="M0 0 C0.99 0 1.98 0 3 0 C3 5.61 3 11.22 3 17 C2.34 17 1.68 17 1 17 C1 12.38 1 7.76 1 3 C-1.64709291 4.14299502 -4.29269052 5.28924372 -6.9375 6.4375 C-7.69224609 6.76298828 -8.44699219 7.08847656 -9.22460938 7.42382812 C-12.87028689 8.80102606 -12.87028689 8.80102606 -16 11 C-17.99958364 11.04080783 -20.00045254 11.04254356 -22 11 C-22 11.66 -22 12.32 -22 13 C-27.54598115 13.12537868 -33.09110374 13.21516061 -38.63818359 13.2746582 C-40.51756188 13.29950922 -42.39684662 13.33340276 -44.27587891 13.37719727 C-57.55725313 13.67856321 -71.32017512 13.33835704 -83 6 C-83.33 5.01 -83.66 4.02 -84 3 C-83.28328125 3.28875 -82.5665625 3.5775 -81.828125 3.875 C-79.14407143 4.94268982 -76.4553376 5.98747599 -73.75 7 C-72.44289063 7.495 -72.44289063 7.495 -71.109375 8 C-62.76093253 10.68492622 -55.07804196 11.3257241 -46.3125 11.25 C-45.15564697 11.24105713 -43.99879395 11.23211426 -42.80688477 11.22290039 C-29.17302255 11.03781666 -10.36947906 10.36947906 0 0 Z " fill="#DFBB29" transform="translate(169,100)"/>
<path d="M0 0 C4.98719101 0.4032197 9.86141407 0.911843 14.75 2 C21.09980571 3.35922359 27.5294783 3.6457063 34 4 C33.67 5.65 33.34 7.3 33 9 C26.78142267 9.12375278 20.94460352 8.76417569 14.8125 7.75 C14.04486328 7.64042969 13.27722656 7.53085938 12.48632812 7.41796875 C7.39986694 6.58983882 4.00296605 5.29430699 0 2 C0 1.34 0 0.68 0 0 Z " fill="#B2D6E7" transform="translate(44,105)"/>
<path d="M0 0 C0.33 1.32 0.66 2.64 1 4 C3.31 4.33 5.62 4.66 8 5 C8.33 5.99 8.66 6.98 9 8 C13.10223585 9.01540112 13.10223585 9.01540112 17 8 C17 8.99 17 9.98 17 11 C31.22699981 14.3023255 44.4755631 15.15324728 59 15 C59.495 15.99 59.495 15.99 60 17 C48.87060966 20.70979678 33.91141102 18.34295681 23 15 C21.64641933 14.63065816 20.29221291 14.26360453 18.9375 13.8984375 C11.39013148 11.78860691 4.7865956 9.5391425 -1 4 C-0.67 2.68 -0.34 1.36 0 0 Z " fill="#4BA3D3" transform="translate(79,133)"/>
<path d="M0 0 C5.40109303 0.42057692 10.40502824 1.07391278 15.640625 2.5234375 C21.00549443 3.60707007 26.5444253 3.70883169 32 4 C32 5.65 32 7.3 32 9 C28.35261086 8.74803476 24.70764513 8.46994871 21.0625 8.1875 C20.04091797 8.11724609 19.01933594 8.04699219 17.96679688 7.97460938 C11.75321147 7.47831661 5.66181877 6.79177239 0 4 C-0.33 3.34 -0.66 2.68 -1 2 C-0.67 1.34 -0.34 0.68 0 0 Z " fill="#BDDEED" transform="translate(46,126)"/>
<path d="M0 0 C0 0.66 0 1.32 0 2 C-4.12451451 5.11868966 -8.44479201 7.28064196 -13.25 9.1875 C-13.90387695 9.44797119 -14.55775391 9.70844238 -15.23144531 9.97680664 C-21.4070448 12.33096944 -27.58162694 14.13945769 -34 12 C-35.70016844 11.91821886 -37.40336297 11.89250499 -39.10546875 11.90234375 C-40.57983398 11.90717773 -40.57983398 11.90717773 -42.08398438 11.91210938 C-43.62022461 11.92467773 -43.62022461 11.92467773 -45.1875 11.9375 C-46.22326172 11.94201172 -47.25902344 11.94652344 -48.32617188 11.95117188 C-50.88417266 11.9629599 -53.44205733 11.97941485 -56 12 C-56 11.67 -56 11.34 -56 11 C-55.41621582 10.98018066 -54.83243164 10.96036133 -54.23095703 10.93994141 C-51.52859732 10.84337139 -48.82687606 10.73424027 -46.125 10.625 C-45.2071875 10.5940625 -44.289375 10.563125 -43.34375 10.53125 C-34.2623218 10.14752768 -25.93475913 8.46086173 -17.32421875 5.5859375 C-14.80221126 4.95013729 -12.59053821 4.89912949 -10 5 C-10 4.34 -10 3.68 -10 3 C-6.27034861 0.96564469 -4.33094958 0 0 0 Z " fill="#829923" transform="translate(171,98)"/>
<path d="M0 0 C0.65355469 0.58007812 0.65355469 0.58007812 1.3203125 1.171875 C7.9851272 6.99998136 13.35402757 10.37604207 22.09765625 12.2890625 C25 13 25 13 27.49609375 14.0234375 C32.19907778 15.85767464 37.04805663 16.13575462 42.0546875 16.31640625 C43.16328125 16.35830078 44.271875 16.40019531 45.4140625 16.44335938 C46.55617187 16.48267578 47.69828125 16.52199219 48.875 16.5625 C50.0403125 16.60568359 51.205625 16.64886719 52.40625 16.69335938 C55.27072625 16.79901629 58.13528321 16.90111799 61 17 C61 17.33 61 17.66 61 18 C30.66709003 18.61916858 30.66709003 18.61916858 18 15 C17.36143066 14.81920898 16.72286133 14.63841797 16.06494141 14.45214844 C14.37529426 13.97277394 12.68747244 13.48697448 11 13 C11 12.34 11 11.68 11 11 C9.39125 10.62875 9.39125 10.62875 7.75 10.25 C3.95569076 8.98523025 2.30011175 8.22015645 0 5 C-0.25 2.25 -0.25 2.25 0 0 Z " fill="#944F11" transform="translate(79,74)"/>
<path d="M0 0 C37.45001529 -0.77499236 37.45001529 -0.77499236 47 4 C47 4.66 47 5.32 47 6 C47.928125 6.2165625 47.928125 6.2165625 48.875 6.4375 C51 7 51 7 53 8 C53 8.66 53 9.32 53 10 C53.66 10 54.32 10 55 10 C55 10.66 55 11.32 55 12 C52.66935136 11.09781343 50.36744898 10.17952289 48.12109375 9.08203125 C36.93283641 3.7042501 25.46766821 2.53835701 13.1875 2.3125 C11.91068359 2.27833984 10.63386719 2.24417969 9.31835938 2.20898438 C6.21232765 2.12755283 3.10654108 2.05806919 0 2 C0 1.34 0 0.68 0 0 Z " fill="#B9C4D1" transform="translate(111,47)"/>
<path d="M0 0 C1.125 1.75 1.125 1.75 2 4 C1.25 5.8125 1.25 5.8125 0 8 C-0.309375 9.134375 -0.61875 10.26875 -0.9375 11.4375 C-1.93494272 14.78186677 -3.18942349 17.05781316 -5 20 C-9.11938564 31.16776412 -9.42550836 43.22292137 -10 55 C-10.33 55 -10.66 55 -11 55 C-11.54072585 35.9886338 -10.95226803 16.42840205 0 0 Z " fill="#9CC5D6" transform="translate(21,56)"/>
<path d="M0 0 C0.66 0 1.32 0 2 0 C3.43227406 2.86454812 3.22070286 5.40561022 3.31640625 8.60546875 C3.33723267 9.27371674 3.35805908 9.94196472 3.3795166 10.63046265 C3.44571422 12.81602443 3.50446326 15.00170738 3.5625 17.1875 C3.60537716 18.6841637 3.64826457 20.18082711 3.69116211 21.67749023 C4.02431385 33.78609529 4.11000594 45.88712411 4 58 C3.34 58 2.68 58 2 58 C1.73881313 50.73306313 1.4780092 43.46611263 1.21769714 36.19914436 C1.09681803 32.82497614 0.97580591 29.45081279 0.85449219 26.07666016 C0.71516098 22.19955616 0.57628467 18.3224361 0.4375 14.4453125 C0.39375244 13.23070343 0.35000488 12.01609436 0.30493164 10.76467896 C0.26489014 9.64366791 0.22484863 8.52265686 0.18359375 7.36767578 C0.14806396 6.37728302 0.11253418 5.38689026 0.07592773 4.3664856 C0.02924572 2.91151906 0 1.45571523 0 0 Z " fill="#A5C1BA" transform="translate(170,63)"/>
<path d="M0 0 C0.79019531 0.20496094 1.58039062 0.40992187 2.39453125 0.62109375 C12.60689589 3.06038999 22.53560754 3.67647401 33 4 C33 5.32 33 6.64 33 8 C21.7127061 8.65328389 11.87789296 6.76263948 1 4 C0.67 2.68 0.34 1.36 0 0 Z " fill="#BBDEEA" transform="translate(45,85)"/>
<path d="M0 0 C0.66 0.66 1.32 1.32 2 2 C-3.28 1.34 -8.56 0.68 -14 0 C-14 -0.66 -14 -1.32 -14 -2 C-26.54 -2.33 -39.08 -2.66 -52 -3 C-52 -3.33 -52 -3.66 -52 -4 C-35.33922246 -7.78011218 -15.89893308 -6.08659851 0 0 Z " fill="#C46D5C" transform="translate(158,54)"/>
<path d="M0 0 C1.30324219 0.61488281 1.30324219 0.61488281 2.6328125 1.2421875 C4.36144531 2.05042969 4.36144531 2.05042969 6.125 2.875 C7.26195312 3.40867187 8.39890625 3.94234375 9.5703125 4.4921875 C12.67869521 5.858743 15.76204996 6.98629528 19 8 C18.01 8.495 18.01 8.495 17 9 C16.67 9.99 16.34 10.98 16 12 C9.6523527 11.17608234 5.24822753 7.47774114 0 4 C0 9.61 0 15.22 0 21 C-0.33 21 -0.66 21 -1 21 C-1.02888146 17.68751813 -1.04675799 14.37506833 -1.0625 11.0625 C-1.07087891 10.11697266 -1.07925781 9.17144531 -1.08789062 8.19726562 C-1.09111328 7.29814453 -1.09433594 6.39902344 -1.09765625 5.47265625 C-1.10289307 4.64000244 -1.10812988 3.80734863 -1.11352539 2.94946289 C-1 1 -1 1 0 0 Z " fill="#97C4D8" transform="translate(29,117)"/>
<path d="M0 0 C1.60875 0.928125 1.60875 0.928125 3.25 1.875 C5.79780984 3.3323679 8.35259355 4.72924491 11 6 C11 6.66 11 7.32 11 8 C11.68964844 8.10957031 12.37929687 8.21914062 13.08984375 8.33203125 C14.49943359 8.56986328 14.49943359 8.56986328 15.9375 8.8125 C16.85402344 8.96332031 17.77054688 9.11414063 18.71484375 9.26953125 C21.33604421 9.85236655 23.43682127 10.56104434 25.90625 11.53125 C32.57692348 13.82015853 39.58856557 13.57295706 46.5625 13.6875 C47.9668274 13.72073948 49.37112567 13.75523505 50.77539062 13.79101562 C54.18351308 13.87299795 57.59139425 13.94231345 61 14 C61 14.33 61 14.66 61 15 C56.58919646 15.02490464 52.17843129 15.04295604 47.76757812 15.05493164 C46.27017503 15.05992943 44.77277673 15.0667299 43.27539062 15.07543945 C41.11066495 15.08770623 38.94600435 15.09327397 36.78125 15.09765625 C34.8331543 15.10551147 34.8331543 15.10551147 32.84570312 15.11352539 C21.69251025 14.78428246 21.69251025 14.78428246 17 11 C14.66989091 10.32215008 12.33640176 9.65583207 10 9 C8.31243867 8.03567924 6.64333504 7.03789581 5 6 C3.34630643 5.30177383 1.68272986 4.62501395 0 4 C0 2.68 0 1.36 0 0 Z " fill="#8FAE46" transform="translate(79,79)"/>
<path d="M0 0 C-7.98677687 3.29945536 -15.23641499 3.45214619 -23.8125 3.375 C-25.12154297 3.38660156 -26.43058594 3.39820313 -27.77929688 3.41015625 C-29.03419922 3.40628906 -30.28910156 3.40242187 -31.58203125 3.3984375 C-32.71874268 3.39505371 -33.8554541 3.39166992 -35.02661133 3.38818359 C-38.25977019 2.96608633 -39.63365633 2.18314987 -42 0 C-40.59306885 0.00785522 -40.59306885 0.00785522 -39.15771484 0.01586914 C-35.65770852 0.03297297 -32.15774701 0.04548027 -28.65771484 0.05493164 C-27.14663998 0.05994162 -25.63556991 0.06675144 -24.12451172 0.07543945 C-21.94497488 0.08765176 -19.76550247 0.09326178 -17.5859375 0.09765625 C-16.2767334 0.10289307 -14.9675293 0.10812988 -13.61865234 0.11352539 C-10.04885734 0.0876891 -10.04885734 0.0876891 -6.77587891 -0.56860352 C-4.08361092 -0.98700611 -2.5418515 -0.87987167 0 0 Z " fill="#5899A3" transform="translate(148,132)"/>
<path d="M0 0 C2.97 0.99 5.94 1.98 9 3 C8.67 3.66 8.34 4.32 8 5 C7.34 5 6.68 5 6 5 C6.33 7.64 6.66 10.28 7 13 C1.63904723 11.41078475 -3.70843973 9.81027062 -9 8 C-9 7.67 -9 7.34 -9 7 C-6.03 7 -3.06 7 0 7 C-0.33 6.01 -0.66 5.02 -1 4 C-0.67 2.68 -0.34 1.36 0 0 Z M1 4 C1.33 4.99 1.66 5.98 2 7 C2.33 6.01 2.66 5.02 3 4 C2.34 4 1.68 4 1 4 Z " fill="#0F1519" transform="translate(131,5)"/>
<path d="M0 0 C0.91346191 -0.00902344 1.82692383 -0.01804687 2.76806641 -0.02734375 C8.99205169 -0.00045344 14.75963034 0.81425245 20.8125 2.25 C20.8125 2.91 20.8125 3.57 20.8125 4.25 C19.554375 4.29125 18.29625 4.3325 17 4.375 C16.29230469 4.39820313 15.58460937 4.42140625 14.85546875 4.4453125 C12.8125 4.25 12.8125 4.25 9.8125 2.25 C1.49512403 1.54915543 -6.40938425 2.29253979 -14.578125 3.87109375 C-18.05150883 4.37546236 -20.78382848 4.02356171 -24.1875 3.25 C-24.1875 2.92 -24.1875 2.59 -24.1875 2.25 C-16.10128913 0.54121582 -8.24317362 0.03339007 0 0 Z " fill="#9CC6D4" transform="translate(101.1875,9.75)"/>
<path d="M0 0 C1.0725 0.144375 2.145 0.28875 3.25 0.4375 C8.00659695 1.04381667 12.77623307 1.38356577 17.55859375 1.71875 C20 2 20 2 21 3 C23.18639453 3.07258946 25.37500389 3.08373783 27.5625 3.0625 C28.76003906 3.05347656 29.95757812 3.04445312 31.19140625 3.03515625 C32.58166016 3.01775391 32.58166016 3.01775391 34 3 C34.495 3.99 34.495 3.99 35 5 C22.5977181 5.3285038 11.02290199 5.4468388 -1 2 C-0.67 1.34 -0.34 0.68 0 0 Z " fill="#98C3D3" transform="translate(75,185)"/>
<path d="M0 0 C19.305 0.495 19.305 0.495 39 1 C39 1.33 39 1.66 39 2 C34.85076942 2.78579793 30.94706569 3.11854983 26.7265625 3.09765625 C25.57285156 3.09443359 24.41914063 3.09121094 23.23046875 3.08789062 C22.04066406 3.07951172 20.85085937 3.07113281 19.625 3.0625 C18.41199219 3.05798828 17.19898437 3.05347656 15.94921875 3.04882812 C12.96609493 3.03708354 9.98307321 3.0206584 7 3 C7 2.34 7 1.68 7 1 C4.69 1 2.38 1 0 1 C0 0.67 0 0.34 0 0 Z " fill="#978F3E" transform="translate(105,130)"/>
<path d="M0 0 C0.33 1.32 0.66 2.64 1 4 C3.31 4.33 5.62 4.66 8 5 C8.33 5.99 8.66 6.98 9 8 C13.10223585 9.01540112 13.10223585 9.01540112 17 8 C17 8.99 17 9.98 17 11 C19.64 11.66 22.28 12.32 25 13 C24.34 13.66 23.68 14.32 23 15 C5.46808511 10.19148936 5.46808511 10.19148936 -1 4 C-0.67 2.68 -0.34 1.36 0 0 Z " fill="#4F9EC8" transform="translate(79,133)"/>
<path d="M0 0 C1.32 0.33 2.64 0.66 4 1 C0.17225273 5.18659858 -3.94607874 8.37820862 -9 11 C-9.66 11 -10.32 11 -11 11 C-10.67 9.35 -10.34 7.7 -10 6 C-9.34 6 -8.68 6 -8 6 C-7.67 5.01 -7.34 4.02 -7 3 C-6.21625 3.061875 -5.4325 3.12375 -4.625 3.1875 C-3.75875 3.125625 -2.8925 3.06375 -2 3 C-1.34 2.01 -0.68 1.02 0 0 Z " fill="#9ACEDF" transform="translate(155,167)"/>
<path d="M0 0 C0.33 1.32 0.66 2.64 1 4 C-1.68074883 5.49265542 -4.36852058 6.96906953 -7.0625 8.4375 C-7.81466797 8.85837891 -8.56683594 9.27925781 -9.34179688 9.71289062 C-13.98365635 12.22471935 -17.7243603 13.61466111 -23 14 C-22.67 13.34 -22.34 12.68 -22 12 C-21.01 12 -20.02 12 -19 12 C-18.67 11.01 -18.34 10.02 -18 9 C-15.3828125 7.90234375 -15.3828125 7.90234375 -12.125 6.9375 C-8.5979751 5.87939253 -6.08114728 5.05409818 -3 3 C-2.01 3 -1.02 3 0 3 C0 2.01 0 1.02 0 0 Z " fill="#8F924F" transform="translate(171,117)"/>
<path d="M0 0 C5.61 0 11.22 0 17 0 C16.67 1.65 16.34 3.3 16 5 C14.54207116 5.05399736 13.08357288 5.09279177 11.625 5.125 C10.81289062 5.14820312 10.00078125 5.17140625 9.1640625 5.1953125 C7 5 7 5 5 3 C5.33 2.67 5.66 2.34 6 2 C3.03 1.505 3.03 1.505 0 1 C0 0.67 0 0.34 0 0 Z " fill="#C4DDE9" transform="translate(61,109)"/>
<path d="M0 0 C0.99 0 1.98 0 3 0 C3 5.61 3 11.22 3 17 C2.34 17 1.68 17 1 17 C1 12.38 1 7.76 1 3 C-0.7325 3.845625 -2.465 4.69125 -4.25 5.5625 C-9.41923077 8.08557692 -9.41923077 8.08557692 -12.359375 7.65234375 C-12.90078125 7.43707031 -13.4421875 7.22179687 -14 7 C-13.15695313 6.66226563 -12.31390625 6.32453125 -11.4453125 5.9765625 C-10.34960938 5.53054687 -9.25390625 5.08453125 -8.125 4.625 C-7.03445312 4.18414062 -5.94390625 3.74328125 -4.8203125 3.2890625 C-1.93670638 2.16948662 -1.93670638 2.16948662 0 0 Z " fill="#D2BB4E" transform="translate(169,100)"/>
<path d="M0 0 C0.33 0 0.66 0 1 0 C1.19877676 21.00917431 1.19877676 21.00917431 0 30 C-0.99 30 -1.98 30 -3 30 C-3.18451025 19.44191344 -3.18451025 19.44191344 -2 15 C-1.67 15 -1.34 15 -1 15 C-0.67 10.05 -0.34 5.1 0 0 Z " fill="#A0B59A" transform="translate(78,79)"/>
<path d="M0 0 C8.43243243 4.37837838 8.43243243 4.37837838 11 9 C11.31138998 12.03222372 11.23806342 14.96469144 11 18 C10.34 18 9.68 18 9 18 C8.67 18.99 8.34 19.98 8 21 C7.34 21 6.68 21 6 21 C6.1546875 20.44183594 6.309375 19.88367188 6.46875 19.30859375 C7.42061472 15.17218162 7.8679735 11.18390349 7 7 C5.30851494 5.16896743 3.71821017 4.11776422 1.53125 2.9375 C1.0259375 2.628125 0.520625 2.31875 0 2 C0 1.34 0 0.68 0 0 Z " fill="#D35C3C" transform="translate(160,56)"/>
<path d="M0 0 C1.60495567 0.11442461 3.20898119 0.24194694 4.8125 0.375 C5.70582031 0.44460937 6.59914063 0.51421875 7.51953125 0.5859375 C10 1 10 1 13 3 C12.01 3 11.02 3 10 3 C10 3.99 10 4.98 10 6 C10.99 6.33 11.98 6.66 13 7 C7.72250715 6.46148032 3.74354436 5.22656164 -1 3 C-0.67 2.01 -0.34 1.02 0 0 Z " fill="#AED6E4" transform="translate(46,126)"/>
<path d="M0 0 C8.65555861 2.09408676 16.17227518 5.88311303 24 10 C20.78762947 11.07079018 19.0604445 10.95713639 15.9375 9.6875 C15.26589844 9.42324219 14.59429687 9.15898437 13.90234375 8.88671875 C12 8 12 8 9 6 C9 5.34 9 4.68 9 4 C6.36 3.67 3.72 3.34 1 3 C0.67 2.01 0.34 1.02 0 0 Z " fill="#9DC5D8" transform="translate(124,13)"/>
<path d="M0 0 C0 3 0 3 -1.4375 5.0625 C-4.58140305 7.43959743 -7.2434375 7.9346118 -11.07421875 8.60546875 C-12.99923707 8.81563605 -12.99923707 8.81563605 -14 10 C-15.66617115 10.04063832 -17.33388095 10.042721 -19 10 C-15.41788555 6.99951754 -11.46987884 5.22301226 -7.25 3.3125 C-6.20392578 2.83200195 -6.20392578 2.83200195 -5.13671875 2.34179688 C-3.42642792 1.55693739 -1.71347493 0.77788352 0 0 Z " fill="#4E9BB5" transform="translate(171,121)"/>
<path d="M0 0 C0.99 0.495 0.99 0.495 2 1 C2 1.66 2 2.32 2 3 C2.66 3.12375 3.32 3.2475 4 3.375 C8.7331385 4.36107052 13.41184574 5.47061525 18 7 C18 7.66 18 8.32 18 9 C20.64 9.33 23.28 9.66 26 10 C21.40377484 11.76777891 17.85407602 9.80818698 13.5625 7.9375 C10.41299049 6.78524042 7.3147482 6.4462161 4 6 C3.67 5.67 3.34 5.34 3 5 C2.67 6.32 2.34 7.64 2 9 C1.34 9 0.68 9 0 9 C0 6.03 0 3.06 0 0 Z " fill="#5F989D" transform="translate(78,121)"/>
<path d="M0 0 C-5.70770176 3.11224784 -10.49647456 5.44650847 -17 6 C-17.33 6.33 -17.66 6.66 -18 7 C-19.85287502 7.07226502 -21.70833878 7.0838122 -23.5625 7.0625 C-24.57441406 7.05347656 -25.58632812 7.04445313 -26.62890625 7.03515625 C-27.41136719 7.02355469 -28.19382813 7.01195313 -29 7 C-29 6.67 -29 6.34 -29 6 C-26.69 6 -24.38 6 -22 6 C-22 5.34 -22 4.68 -22 4 C-21.40832031 3.96261719 -20.81664062 3.92523438 -20.20703125 3.88671875 C-15.28874126 3.47752986 -12.17115659 2.78077106 -8 0 C-4.61626354 -0.96678184 -3.39348537 -1.13116179 0 0 Z " fill="#B33F11" transform="translate(166,82)"/>
<path d="M0 0 C1.95825873 -0.02694851 3.91662226 -0.04637218 5.875 -0.0625 C6.96554688 -0.07410156 8.05609375 -0.08570313 9.1796875 -0.09765625 C12 0 12 0 14 1 C14 1.66 14 2.32 14 3 C14.61875 3.144375 15.2375 3.28875 15.875 3.4375 C18 4 18 4 20 5 C20 5.66 20 6.32 20 7 C20.66 7 21.32 7 22 7 C22 7.66 22 8.32 22 9 C19.6174145 8.07770884 17.2632756 7.12212785 14.9453125 6.046875 C10.00430125 3.75588708 5.32332911 2.16145362 0 1 C0 0.67 0 0.34 0 0 Z " fill="#BCBFC6" transform="translate(144,50)"/>
<path d="M0 0 C1.2684375 -0.00386719 1.2684375 -0.00386719 2.5625 -0.0078125 C4.84698944 0.11666289 6.80991574 0.48622543 9 1.125 C9 1.785 9 2.445 9 3.125 C1.74 3.125 -5.52 3.125 -13 3.125 C-8.3319086 0.7909543 -5.17257222 -0.01577004 0 0 Z " fill="#ACE2F8" transform="translate(99,147.875)"/>
<path d="M0 0 C0 3.3 0 6.6 0 10 C-0.66 10 -1.32 10 -2 10 C-2 11.98 -2 13.96 -2 16 C-3.65 15.67 -5.3 15.34 -7 15 C-6.67 14.01 -6.34 13.02 -6 12 C-5.34 12 -4.68 12 -4 12 C-3.95101562 11.21753906 -3.90203125 10.43507813 -3.8515625 9.62890625 C-3.77679688 8.61699219 -3.70203125 7.60507813 -3.625 6.5625 C-3.55539063 5.55316406 -3.48578125 4.54382813 -3.4140625 3.50390625 C-3.27742188 2.67761719 -3.14078125 1.85132812 -3 1 C-1 0 -1 0 0 0 Z " fill="#9FB7BE" transform="translate(78,113)"/>
<path d="M0 0 C-5.73228576 5.73228576 -15.18648644 5.04859504 -22.7890625 5.09765625 C-24.73439934 5.09112827 -26.67972545 5.07938155 -28.625 5.0625 C-29.62917969 5.05798828 -30.63335937 5.05347656 -31.66796875 5.04882812 C-34.11204471 5.03718967 -36.5559882 5.0208424 -39 5 C-39 4.67 -39 4.34 -39 4 C-38.41621582 3.98018066 -37.83243164 3.96036133 -37.23095703 3.93994141 C-34.52859732 3.84337139 -31.82687606 3.73424027 -29.125 3.625 C-28.2071875 3.5940625 -27.289375 3.563125 -26.34375 3.53125 C-17.46357241 3.15603123 -8.68949756 -0.23485129 0 0 Z " fill="#70A332" transform="translate(154,105)"/>
<path d="M0 0 C9.02033827 -0.36027978 17.43563342 -0.13260388 26 3 C26.66 3.66 27.32 4.32 28 5 C22.72 4.34 17.44 3.68 12 3 C12 2.34 12 1.68 12 1 C8.04 1 4.08 1 0 1 C0 0.67 0 0.34 0 0 Z " fill="#D26147" transform="translate(132,51)"/>
<path d="M0 0 C-0.804375 0.28875 -1.60875 0.5775 -2.4375 0.875 C-5.1326468 1.73262568 -5.1326468 1.73262568 -6 4 C-9.25746227 6.13677571 -11.91326378 6.21635086 -15.75 6.125 C-16.73484375 6.10695312 -17.7196875 6.08890625 -18.734375 6.0703125 C-19.85585937 6.03550781 -19.85585937 6.03550781 -21 6 C-21 5.67 -21 5.34 -21 5 C-19.35 5 -17.7 5 -16 5 C-16 4.34 -16 3.68 -16 3 C-14.08802961 2.29954544 -12.17019565 1.615081 -10.25 0.9375 C-9.18265625 0.55464844 -8.1153125 0.17179687 -7.015625 -0.22265625 C-4.07719958 -0.98010011 -2.77651052 -1.07151741 0 0 Z " fill="#B28C1D" transform="translate(158,125)"/>
<path d="M0 0 C1.485 0.99 1.485 0.99 3 2 C3.34057617 3.97119141 3.34057617 3.97119141 3.29296875 6.3515625 C3.28330078 7.20234375 3.27363281 8.053125 3.26367188 8.9296875 C3.23853516 9.81914063 3.21339844 10.70859375 3.1875 11.625 C3.16719727 12.97078125 3.16719727 12.97078125 3.14648438 14.34375 C3.11106925 16.56309789 3.06168461 18.78125188 3 21 C-0.20762554 16.18856169 -0.119958 11.87584248 -0.0625 6.1875 C-0.05347656 5.02605469 -0.04445313 3.86460938 -0.03515625 2.66796875 C-0.02355469 1.78753906 -0.01195312 0.90710938 0 0 Z " fill="#A0CBE0" transform="translate(11,104)"/>
<path d="M0 0 C1.60875 0.928125 1.60875 0.928125 3.25 1.875 C5.79780984 3.3323679 8.35259355 4.72924491 11 6 C11 6.66 11 7.32 11 8 C12.12148437 8.18175781 12.12148437 8.18175781 13.265625 8.3671875 C14.74289063 8.61855469 14.74289063 8.61855469 16.25 8.875 C17.22453125 9.03742188 18.1990625 9.19984375 19.203125 9.3671875 C21.77264117 9.94855848 23.72071056 10.70840265 26 12 C18.08274915 12.50535644 11.65910915 10.25443085 5 6 C3.34630643 5.30177383 1.68272986 4.62501395 0 4 C0 2.68 0 1.36 0 0 Z " fill="#9CA248" transform="translate(79,79)"/>
<path d="M0 0 C3.96 0 7.92 0 12 0 C12 1.32 12 2.64 12 4 C10.56260487 4.02712066 9.12506137 4.04645067 7.6875 4.0625 C6.48673828 4.07990234 6.48673828 4.07990234 5.26171875 4.09765625 C3 4 3 4 0 3 C0 2.01 0 1.02 0 0 Z " fill="#C2E2E9" transform="translate(66,89)"/>
<path d="M0 0 C1.34384766 0.14695313 1.34384766 0.14695313 2.71484375 0.296875 C3.61332031 0.38453125 4.51179688 0.4721875 5.4375 0.5625 C6.16839844 0.72234375 6.89929688 0.8821875 7.65234375 1.046875 C7.98234375 1.706875 8.31234375 2.366875 8.65234375 3.046875 C6.57187078 3.5790191 4.48782082 4.09719286 2.40234375 4.609375 C1.2421875 4.89941406 0.08203125 5.18945312 -1.11328125 5.48828125 C-4.06856608 5.99867464 -5.59199726 6.07683665 -8.34765625 5.046875 C-7.72890625 4.593125 -7.11015625 4.139375 -6.47265625 3.671875 C-1.71577295 0.03425836 -1.71577295 0.03425836 0 0 Z " fill="#88AABC" transform="translate(84.34765625,48.953125)"/>
<path d="M0 0 C1.98 0 3.96 0 6 0 C6 0.66 6 1.32 6 2 C7.08861328 2.16822266 7.08861328 2.16822266 8.19921875 2.33984375 C11.12563993 3.02961387 13.22287809 4.05510814 15.8125 5.5625 C16.60269531 6.01753906 17.39289063 6.47257812 18.20703125 6.94140625 C18.79871094 7.29074219 19.39039062 7.64007813 20 8 C18 9 18 9 15.828125 8.29296875 C14.97734375 7.92816406 14.1265625 7.56335938 13.25 7.1875 C9.53710622 5.63238942 5.84199751 4.21326237 2 3 C2 2.34 2 1.68 2 1 C1.34 0.67 0.68 0.34 0 0 Z " fill="#939D1F" transform="translate(80,100)"/>
<path d="M0 0 C1.32 0.99 2.64 1.98 4 3 C3.67 3.33 3.34 3.66 3 4 C2.76472227 6.34987262 2.58613583 8.70556039 2.4375 11.0625 C2.35371094 12.35285156 2.26992187 13.64320312 2.18359375 14.97265625 C2.12300781 15.97167969 2.06242187 16.97070312 2 18 C1.34 18 0.68 18 0 18 C0 12.06 0 6.12 0 0 Z " fill="#DDBA4C" transform="translate(78,99)"/>
<path d="M0 0 C-4.13378595 2.7558573 -6.05203546 3.10756445 -11 3 C-11.33 3.99 -11.66 4.98 -12 6 C-14.475 5.01 -14.475 5.01 -17 4 C-14.05276949 2.03517966 -11.88022174 1.2438783 -8.5 0.3125 C-7.5409375 0.04050781 -6.581875 -0.23148438 -5.59375 -0.51171875 C-3 -1 -3 -1 0 0 Z " fill="#8CD2FA" transform="translate(158,146)"/>
<path d="M0 0 C0.66 0 1.32 0 2 0 C0.58832253 5.26170694 -1.74850232 8.72171358 -5 13 C-5.33 11.68 -5.66 10.36 -6 9 C-7.32 8.67 -8.64 8.34 -10 8 C-9.0925 7.79375 -8.185 7.5875 -7.25 7.375 C-3.23537961 5.67650676 -2.22286935 3.6518568 0 0 Z " fill="#9AC1D0" transform="translate(179,139)"/>
<path d="M0 0 C1.0209375 0.433125 1.0209375 0.433125 2.0625 0.875 C5.32893093 2.12597355 8.62846123 3.07447955 12 4 C11.01 4.495 11.01 4.495 10 5 C10 5.99 10 6.98 10 8 C6.4134946 6.66786942 3.12317517 5.23083941 0 3 C0 2.01 0 1.02 0 0 Z " fill="#9EC7DE" transform="translate(35,80)"/>
<path d="M0 0 C0.33 0 0.66 0 1 0 C1.28571429 7.42857143 1.28571429 7.42857143 -1 11 C-3.64 11 -6.28 11 -9 11 C-6.37801226 8.84622436 -4.35595828 7.59927826 -1 7 C-1.020625 6.030625 -1.04125 5.06125 -1.0625 4.0625 C-1 1 -1 1 0 0 Z " fill="#8DD2F3" transform="translate(173,131)"/>
<path d="M0 0 C3.38891322 0.68886787 6.18011613 1.98716486 9.25 3.5625 C10.14203125 4.01753906 11.0340625 4.47257812 11.953125 4.94140625 C12.96632813 5.46541016 12.96632813 5.46541016 14 6 C14 6.33 14 6.66 14 7 C10.05272412 7.17942163 7.4019487 7.09350689 4 5 C4 4.34 4 3.68 4 3 C2.68 3 1.36 3 0 3 C0 2.01 0 1.02 0 0 Z " fill="#C28F07" transform="translate(80,118)"/>
<path d="M0 0 C3.63 0.66 7.26 1.32 11 2 C10.67 3.32 10.34 4.64 10 6 C5.545 5.01 5.545 5.01 1 4 C0.67 2.68 0.34 1.36 0 0 Z " fill="#B2D5E5" transform="translate(45,85)"/>
<path d="M0 0 C0.33 0 0.66 0 1 0 C1 4.95 1 9.9 1 15 C0.34 15 -0.32 15 -1 15 C-2.51708428 4.44191344 -2.51708428 4.44191344 0 0 Z " fill="#4FAAD8" transform="translate(171,123)"/>
<path d="M0 0 C-0.66386719 0.18175781 -1.32773438 0.36351562 -2.01171875 0.55078125 C-7.65338286 2.14448155 -7.65338286 2.14448155 -12.875 4.75 C-15 6 -15 6 -17.1328125 5.578125 C-17.74898438 5.38734375 -18.36515625 5.1965625 -19 5 C-7.32563753 -2.03056051 -7.32563753 -2.03056051 0 0 Z " fill="#C86B56" transform="translate(106,52)"/>
<path d="M0 0 C0.99 0 1.98 0 3 0 C3 0.66 3 1.32 3 2 C4.175625 2.185625 4.175625 2.185625 5.375 2.375 C8 3 8 3 10 5 C7.36 5.33 4.72 5.66 2 6 C2 5.34 2 4.68 2 4 C0.35 4 -1.3 4 -3 4 C-3 3.67 -3 3.34 -3 3 C-1.35 3 0.3 3 2 3 C2 2.34 2 1.68 2 1 C1.34 0.67 0.68 0.34 0 0 Z " fill="#86A7BD" transform="translate(78,145)"/>
<path d="M0 0 C-2.46629166 1.64419444 -4.92734642 3.15858746 -7.5 4.625 C-8.2734375 5.07101563 -9.046875 5.51703125 -9.84375 5.9765625 C-12 7 -12 7 -15 7 C-9.96702568 1.687416 -7.39491636 -0.33613256 0 0 Z " fill="#BBA6A9" transform="translate(99,51)"/>
<path d="M0 0 C2.875 0.1875 2.875 0.1875 6 1 C7.25 3.5 7.25 3.5 8 6 C8.66 6.33 9.32 6.66 10 7 C9.67 7.99 9.34 8.98 9 10 C7.49702124 8.52386015 5.99768715 7.04400843 4.5 5.5625 C3.6646875 4.73878906 2.829375 3.91507813 1.96875 3.06640625 C0 1 0 1 0 0 Z " fill="#9DC2D6" transform="translate(32,159)"/>
<path d="M0 0 C0.33 0 0.66 0 1 0 C0.22095672 11.52164009 0.22095672 11.52164009 -2 17 C-2.33 17 -2.66 17 -3 17 C-2.88556397 14.9160597 -2.75804453 12.83283507 -2.625 10.75 C-2.55539063 9.58984375 -2.48578125 8.4296875 -2.4140625 7.234375 C-2.03751692 4.29305666 -1.5225877 2.50050989 0 0 Z " fill="#8EB3C4" transform="translate(188,112)"/>
<path d="M0 0 C2.5 2.3125 2.5 2.3125 5 5 C5 5.99 5 6.98 5 8 C3.35 8.33 1.7 8.66 0 9 C0 6.03 0 3.06 0 0 Z " fill="#97BFD4" transform="translate(166,39)"/>
<path d="M0 0 C0.33 1.32 0.66 2.64 1 4 C-0.28913487 4.67154933 -1.58140204 5.33708859 -2.875 6 C-3.59429687 6.37125 -4.31359375 6.7425 -5.0546875 7.125 C-7 8 -7 8 -9 8 C-9 6.68 -9 5.36 -9 4 C-8.43410156 3.87882813 -7.86820313 3.75765625 -7.28515625 3.6328125 C-6.18494141 3.38144531 -6.18494141 3.38144531 -5.0625 3.125 C-4.33160156 2.96257812 -3.60070312 2.80015625 -2.84765625 2.6328125 C-0.79299706 2.17038477 -0.79299706 2.17038477 0 0 Z " fill="#3DA0CE" transform="translate(169,135)"/>
<path d="M0 0 C3.39125772 0.94955216 6.73471212 1.90796135 10.0625 3.0625 C13.0358873 4.01145339 15.91407686 4.55915384 19 5 C19 5.33 19 5.66 19 6 C13.47322267 6.19392201 9.24385089 5.7479503 4 4 C4 3.34 4 2.68 4 2 C2.68 1.67 1.36 1.34 0 1 C0 0.67 0 0.34 0 0 Z " fill="#489EB9" transform="translate(87,127)"/>
<path d="M0 0 C0.33 0.99 0.66 1.98 1 3 C-7.261959 7.59225513 -7.261959 7.59225513 -12 7 C-8.35140239 3.95950199 -4.2555467 2.03481238 0 0 Z " fill="#C49214" transform="translate(170,117)"/>
<path d="M0 0 C1.98 0 3.96 0 6 0 C6.33 0.99 6.66 1.98 7 3 C9.31 3.33 11.62 3.66 14 4 C13.01 4.66 12.02 5.32 11 6 C8.30078125 5.1015625 8.30078125 5.1015625 5.3125 3.625 C4.31863281 3.14289063 3.32476562 2.66078125 2.30078125 2.1640625 C1.16189453 1.58785156 1.16189453 1.58785156 0 1 C0 0.67 0 0.34 0 0 Z " fill="#92B9C8" transform="translate(55,178)"/>
<path d="M0 0 C0.66 0 1.32 0 2 0 C2 1.32 2 2.64 2 4 C3.32 4 4.64 4 6 4 C6 4.66 6 5.32 6 6 C6.66 6 7.32 6 8 6 C8.33 6.99 8.66 7.98 9 9 C2.25 7.375 2.25 7.375 0 4 C0 2.68 0 1.36 0 0 Z " fill="#95914C" transform="translate(78,117)"/>
<path d="M0 0 C4.38332057 0.82187261 8.67940177 1.90154282 13 3 C13 3.33 13 3.66 13 4 C11.56465159 4.2226746 10.12654475 4.42761906 8.6875 4.625 C7.88699219 4.74101562 7.08648437 4.85703125 6.26171875 4.9765625 C4 5 4 5 1 3 C1.33 2.67 1.66 2.34 2 2 C1.34 1.34 0.68 0.68 0 0 Z " fill="#8ABCD4" transform="translate(89,144)"/>
<path d="M0 0 C0.99 0.33 1.98 0.66 3 1 C2.360625 1.268125 1.72125 1.53625 1.0625 1.8125 C-1.33131686 2.88667752 -1.33131686 2.88667752 -2 6 C-2.22179785 7.89212737 -2.40614015 9.78884472 -2.5625 11.6875 C-2.64628906 12.68136719 -2.73007813 13.67523438 -2.81640625 14.69921875 C-2.87699219 15.45847656 -2.93757813 16.21773437 -3 17 C-3.33 17 -3.66 17 -4 17 C-4.05423638 15.08364783 -4.09289963 13.16685075 -4.125 11.25 C-4.14820312 10.18265625 -4.17140625 9.1153125 -4.1953125 8.015625 C-4.00322356 5.04977172 -3.63578192 3.44795336 -2 1 C-1.34 0.67 -0.68 0.34 0 0 Z " fill="#BDA7A5" transform="translate(81,59)"/>
<path d="M0 0 C0.33 0.66 0.66 1.32 1 2 C1.66 2.33 2.32 2.66 3 3 C0.75 5.0625 0.75 5.0625 -2 7 C-3.32 6.67 -4.64 6.34 -6 6 C-4.02 4.02 -2.04 2.04 0 0 Z " fill="#9AC5D8" transform="translate(41,31)"/>
<path d="M0 0 C10.55808656 0.96355353 10.55808656 0.96355353 15 2 C15 2.66 15 3.32 15 4 C13.741875 4.04125 12.48375 4.0825 11.1875 4.125 C10.47980469 4.14820313 9.77210937 4.17140625 9.04296875 4.1953125 C7 4 7 4 4 2 C2.68 2 1.36 2 0 2 C0 1.34 0 0.68 0 0 Z " fill="#96C0CE" transform="translate(107,10)"/>
<path d="M0 0 C0 1.98 0 3.96 0 6 C-1.65 6.33 -3.3 6.66 -5 7 C-5 3 -5 3 -3.625 1.25 C-2 0 -2 0 0 0 Z " fill="#A04219" transform="translate(171,74)"/>
<path d="M0 0 C0 0.99 0 1.98 0 3 C-0.99 3.495 -0.99 3.495 -2 4 C-2.474375 4.825 -2.94875 5.65 -3.4375 6.5 C-5 9 -5 9 -8 10 C-6.68745073 6.0623522 -5.1247232 3.7341328 -2 1 C-1.34 0.67 -0.68 0.34 0 0 Z " fill="#6995AB" transform="translate(37,57)"/>
<path d="M0 0 C2 1.375 2 1.375 4 3 C4 3.66 4 4.32 4 5 C4.99 5 5.98 5 7 5 C6.67 6.32 6.34 7.64 6 9 C3.69 7.35 1.38 5.7 -1 4 C-0.67 2.68 -0.34 1.36 0 0 Z " fill="#96BDD2" transform="translate(43,166)"/>
<path d="M0 0 C0.144375 0.61875 0.28875 1.2375 0.4375 1.875 C0.93152225 4.03258322 0.93152225 4.03258322 2 6 C-0.64 5.67 -3.28 5.34 -6 5 C-4.68 4.67 -3.36 4.34 -2 4 C-2 3.01 -2 2.02 -2 1 C-1.34 0.67 -0.68 0.34 0 0 Z M2 2 C2.99 2.495 2.99 2.495 4 3 C3.34 3.66 2.68 4.32 2 5 C2 4.01 2 3.02 2 2 Z " fill="#050207" transform="translate(130,7)"/>
<path d="M0 0 C0 0.99 0 1.98 0 3 C-1.73956658 4.73956658 -4.1936622 4.37190386 -6.5625 4.5625 C-8.08037109 4.68818359 -8.08037109 4.68818359 -9.62890625 4.81640625 C-10.41136719 4.87699219 -11.19382812 4.93757812 -12 5 C-9.3139714 3.20931427 -7.3373411 2.33944209 -4.3125 1.375 C-3.50425781 1.11460937 -2.69601563 0.85421875 -1.86328125 0.5859375 C-1.24839844 0.39257812 -0.63351563 0.19921875 0 0 Z " fill="#18232E" transform="translate(134,183)"/>
<path d="M0 0 C0.33 0.99 0.66 1.98 1 3 C-1.31 3 -3.62 3 -6 3 C-6.33 2.01 -6.66 1.02 -7 0 C-4.3333581 -1.33332095 -2.83319697 -0.67102033 0 0 Z " fill="#A3D7F0" transform="translate(79,183)"/>
<path d="M0 0 C0.66 0 1.32 0 2 0 C1.48964169 4.3890815 0.47785723 7.33708062 -2 11 C-3 9 -3 9 -2.44140625 6.8359375 C-2.15136719 6.02382812 -1.86132812 5.21171875 -1.5625 4.375 C-1.27503906 3.55773437 -0.98757812 2.74046875 -0.69140625 1.8984375 C-0.46324219 1.27195313 -0.23507813 0.64546875 0 0 Z " fill="#A8CCE0" transform="translate(183,128)"/>
<path d="M0 0 C5.57142857 5.14285714 5.57142857 5.14285714 6 9 C3.53199953 7.84826645 1.95216435 6.95216435 0 5 C-0.125 2.375 -0.125 2.375 0 0 Z " fill="#944D14" transform="translate(79,74)"/>
<path d="M0 0 C0.66 1.32 1.32 2.64 2 4 C0.71937515 5.7074998 -0.61767557 7.37373596 -2 9 C-2.66 9 -3.32 9 -4 9 C-2.94124926 5.59687262 -1.99097846 2.98646769 0 0 Z " fill="#92B9C7" transform="translate(21,56)"/>
<path d="M0 0 C1.32 0.33 2.64 0.66 4 1 C3.34 2.65 2.68 4.3 2 6 C1.34 5.67 0.68 5.34 0 5 C-0.66 5.66 -1.32 6.32 -2 7 C-2.33 6.01 -2.66 5.02 -3 4 C-1.5625 1.8125 -1.5625 1.8125 0 0 Z " fill="#91C2D5" transform="translate(31,41)"/>
<path d="M0 0 C0.99 0 1.98 0 3 0 C3 1.32 3 2.64 3 4 C3.66 4.33 4.32 4.66 5 5 C4.01 5.66 3.02 6.32 2 7 C0.68 6.01 -0.64 5.02 -2 4 C-1.01 4 -0.02 4 1 4 C0.67 2.68 0.34 1.36 0 0 Z " fill="#94C9DD" transform="translate(168,149)"/>
<path d="M0 0 C0.99 0.99 1.98 1.98 3 3 C1.75023244 6.65316671 1.32901247 7.78065836 -2 10 C-1.34 8.35 -0.68 6.7 0 5 C-0.66 4.67 -1.32 4.34 -2 4 C-1.34 3.34 -0.68 2.68 0 2 C0 1.34 0 0.68 0 0 Z " fill="#95C4DC" transform="translate(178,56)"/>
<path d="M0 0 C3.96 0 7.92 0 12 0 C12 0.33 12 0.66 12 1 C8.04 1.66 4.08 2.32 0 3 C0 2.01 0 1.02 0 0 Z " fill="#CDC9CD" transform="translate(99,49)"/>
<path d="M0 0 C2.125 0.9375 2.125 0.9375 4 2 C4 2.99 4 3.98 4 5 C1.03 4.505 1.03 4.505 -2 4 C-2 3.01 -2 2.02 -2 1 C-1.34 0.67 -0.68 0.34 0 0 Z " fill="#95C4D4" transform="translate(61,18)"/>
<path d="M0 0 C0 0.66 0 1.32 0 2 C0.66 2.33 1.32 2.66 2 3 C-1.96 3 -5.92 3 -10 3 C-6.48579734 1.24289867 -3.89581553 0 0 0 Z " fill="#B4D8E9" transform="translate(96,148)"/>
<path d="M0 0 C2.02045442 0.60183749 4.02111039 1.27306096 6 2 C6.33 2.66 6.66 3.32 7 4 C4.03 3.67 1.06 3.34 -2 3 C-1.34 2.67 -0.68 2.34 0 2 C0 1.34 0 0.68 0 0 Z " fill="#73B244" transform="translate(102,104)"/>
<path d="M0 0 C0 0.66 0 1.32 0 2 C-3.50776784 3.60355101 -6.14354879 4.22036864 -10 4 C-6.70320317 0.70320317 -4.71687256 0 0 0 Z " fill="#759B35" transform="translate(171,98)"/>
<path d="M0 0 C2.22825644 2.22825644 2.69239369 3.65761628 3.625 6.625 C4.01558594 7.85089844 4.01558594 7.85089844 4.4140625 9.1015625 C4.60742188 9.72804688 4.80078125 10.35453125 5 11 C4.01 11 3.02 11 2 11 C0.80712589 7.12315913 0 4.08378077 0 0 Z " fill="#97BACB" transform="translate(181,61)"/>
<path d="M0 0 C5.75 3.625 5.75 3.625 8 7 C4.84859577 6.65930765 3.39218439 6.41923159 1.1875 4.0625 C0 2 0 2 0 0 Z " fill="#9BC1D2" transform="translate(150,25)"/>
<path d="M0 0 C1.32 0.33 2.64 0.66 4 1 C2.35 2.65 0.7 4.3 -1 6 C-1.66 5.34 -2.32 4.68 -3 4 C-2.01 2.68 -1.02 1.36 0 0 Z " fill="#93BACB" transform="translate(155,167)"/>
<path d="M0 0 C4.95 0.99 4.95 0.99 10 2 C10 2.33 10 2.66 10 3 C2.25 3.125 2.25 3.125 0 2 C0 1.34 0 0.68 0 0 Z " fill="#AD3D0F" transform="translate(94,85)"/>
<path d="M0 0 C-0.99 1.485 -0.99 1.485 -2 3 C-4.625 3.1875 -4.625 3.1875 -7 3 C-7.33 2.34 -7.66 1.68 -8 1 C-5.29120665 -0.35439668 -2.99066732 -0.06501451 0 0 Z " fill="#3B9FC5" transform="translate(154,131)"/>
<path d="M0 0 C0 2.64 0 5.28 0 8 C-0.33 7.34 -0.66 6.68 -1 6 C-1.66 6 -2.32 6 -3 6 C-3 4.35 -3 2.7 -3 1 C-1 0 -1 0 0 0 Z " fill="#AFB2A7" transform="translate(78,113)"/>
<path d="M0 0 C1.11375 0.598125 2.2275 1.19625 3.375 1.8125 C4.00148437 2.14894531 4.62796875 2.48539063 5.2734375 2.83203125 C7 4 7 4 9 7 C5.56072421 5.7580393 2.74792181 4.44259716 0 2 C0 1.34 0 0.68 0 0 Z " fill="#C3664B" transform="translate(160,56)"/>
<path d="M0 0 C2.475 0.99 2.475 0.99 5 2 C4.01 2.99 3.02 3.98 2 5 C1.01 4.67 0.02 4.34 -1 4 C-0.67 2.68 -0.34 1.36 0 0 Z " fill="#99C2D6" transform="translate(29,117)"/>
</svg>
